<?xml version="1.0" encoding="UTF-8" standalone="no"?>
<!-- Created with Inkscape (http://www.inkscape.org/) -->

<svg
   version="1.1"
   id="svg1"
   width="512"
   height="512"
   viewBox="0 0 512 512"
   xmlns="http://www.w3.org/2000/svg"
   xmlns:svg="http://www.w3.org/2000/svg">
  <defs
     id="defs1" />
  <g
     id="g1">
    <path
       style="fill:#74bf42;stroke-width:1.12892"
       d="M 110.19039,480.50332 C 84.270332,477.246 63.07086,460.42555 54.373055,436.21579 52.287631,430.41115 52.201692,423.38754 52.201692,258.74673 V 87.321523 L 55.42853,78.294765 C 59.503152,66.896409 68.38117,54.221593 76.937585,47.587091 91.121043,36.589463 113.25766,29.713495 129.79244,31.169555 c 15.94884,1.404459 22.82515,4.62354 96.37533,45.117195 38.27253,21.071255 89.67951,49.52686 114.23771,63.23466 24.55821,13.70781 56.04954,31.25592 69.98072,38.99579 13.93119,7.73989 28.04164,16.16586 31.35655,18.72437 11.26879,8.69755 20.64457,22.68957 24.39644,36.40833 2.40452,8.79216 2.41519,27.0771 0.0208,35.83186 -3.91374,14.31063 -14.34902,29.3501 -26.17467,37.7233 -7.15961,5.06942 -63.66607,39.66301 -66.4263,40.66659 -2.31639,0.84221 -2.32609,-1.21838 -0.0471,-10.00559 0.94047,-3.62629 1.99324,-12.27997 2.33948,-19.23038 1.03784,-20.83331 -0.6538,-18.12873 18.80766,-30.06951 24.52414,-15.04704 30.18366,-21.24939 31.28839,-34.28936 0.80393,-9.4894 -1.98883,-16.90709 -8.85116,-23.50901 -3.75557,-3.61301 -15.80147,-10.93753 -40.15801,-24.41804 C 357.80201,195.75849 298.56657,162.95446 245.30396,133.45195 192.04135,103.94943 145.37569,78.355962 141.60251,76.57759 124.48714,68.510803 105.57056,72.943936 97.389044,86.939112 L 93.95348,92.815926 93.648519,255.82928 c -0.200728,107.30052 0.09573,164.42319 0.867372,167.13845 3.065057,10.78512 14.301789,18.2668 27.190669,18.10421 8.70174,-0.10978 9.90358,-0.68834 35.50727,-17.09281 11.19179,-7.17066 21.17511,-13.03757 22.18513,-13.03757 1.01003,0 4.83131,1.70873 8.49171,3.79719 8.55196,4.87933 21.38758,9.8853 29.86867,11.64895 3.66777,0.76274 6.6581,1.92621 6.64516,2.58552 -0.013,0.6593 -7.18904,5.63673 -15.94689,11.06097 -8.75785,5.42422 -23.75183,14.77744 -33.31996,20.78493 -9.56814,6.00749 -20.57155,12.33284 -24.45202,14.05632 -11.31403,5.02507 -27.44879,7.26741 -40.49532,5.62788 z m 285.30435,-1.84798 c -1.91363,-0.85327 -7.96475,-5.92991 -13.44693,-11.28141 -10.17056,-9.9281 -67.69343,-68.42233 -75.55261,-76.82842 l -4.33606,-4.63779 -7.26168,3.64703 c -48.2984,24.25699 -108.29734,6.84951 -134.60045,-39.05157 -7.45771,-13.0143 -10.32973,-23.81479 -10.96717,-41.24292 -0.49151,-13.43851 -0.2309,-16.68522 2.02873,-25.27423 9.12463,-34.68323 36.00384,-60.59144 72.48965,-69.87096 13.39237,-3.40612 35.64762,-3.41674 49.29038,-0.0236 30.53986,7.59586 56.39797,28.91288 67.95377,56.02002 5.57103,13.06831 6.81968,19.63423 6.82464,35.88697 0.005,17.80449 -2.08615,26.62775 -9.99854,42.17823 l -4.68717,9.21184 8.00314,7.82079 c 4.40171,4.30144 25.2428,24.63366 46.31351,45.18271 28.71061,27.99979 38.67193,38.4002 39.75324,41.50548 2.92479,8.39936 -1.81784,18.48027 -11.57129,24.5959 -5.64299,3.53828 -14.9244,4.52986 -20.23516,2.16184 z M 260.67947,363.17693 c 31.0339,-6.23108 53.18882,-35.6322 48.48693,-64.3455 -2.20712,-13.47832 -7.55584,-24.15725 -16.49956,-32.94197 -26.20692,-25.74108 -70.8177,-23.41354 -93.3625,4.87109 -18.93022,23.74981 -16.71837,55.62874 5.2996,76.38153 15.30364,14.42429 35.43141,20.17985 56.07553,16.03485 z"
       id="path1" />
  </g>
</svg>
