<svg xmlns="http://www.w3.org/2000/svg" xmlns:xlink="http://www.w3.org/1999/xlink" width="1920" zoomAndPan="magnify" viewBox="0 0 1440 809.999993" height="1080" preserveAspectRatio="xMidYMid meet" version="1.0"><defs><g/><clipPath id="e24bbe7c0e"><path d="M 1190 535.101562 L 1358.878906 535.101562 L 1358.878906 727.878906 L 1190 727.878906 Z M 1190 535.101562 " clip-rule="nonzero"/></clipPath><clipPath id="00ce2377e2"><path d="M 1190.453125 632.734375 C 1190.453125 610.378906 1190.441406 588.023438 1190.457031 565.664062 C 1190.464844 550.261719 1200.316406 538.464844 1215.546875 535.949219 C 1222.839844 534.746094 1229.582031 536.730469 1235.925781 540.414062 C 1262.445312 555.808594 1288.996094 571.152344 1315.359375 586.8125 C 1325 592.539062 1334.777344 598.042969 1344.351562 603.871094 C 1363.382812 615.457031 1363.78125 642.773438 1345.15625 654.988281 C 1337.371094 660.097656 1329.503906 665.085938 1321.667969 670.125 C 1321.242188 670.398438 1320.808594 670.660156 1320.355469 670.894531 C 1319.632812 671.261719 1319.394531 670.886719 1319.523438 670.234375 C 1319.691406 669.367188 1319.945312 668.515625 1320.171875 667.660156 C 1321.511719 662.652344 1321.632812 657.523438 1321.640625 652.394531 C 1321.644531 650.824219 1322.152344 649.8125 1323.484375 648.976562 C 1327.242188 646.625 1330.921875 644.144531 1334.660156 641.753906 C 1344.359375 635.558594 1344.253906 623.554688 1334.332031 617.734375 C 1311.054688 604.074219 1287.722656 590.496094 1264.421875 576.875 C 1253.152344 570.289062 1241.910156 563.664062 1230.625 557.105469 C 1227.234375 555.136719 1223.855469 553.164062 1219.667969 553.246094 C 1212.449219 553.378906 1207.316406 558.382812 1207.3125 565.617188 C 1207.296875 610.140625 1207.308594 654.664062 1207.285156 699.183594 C 1207.285156 703.621094 1208.84375 707.117188 1212.902344 709.175781 C 1217.015625 711.261719 1221.144531 711.113281 1225.011719 708.589844 C 1230.210938 705.199219 1235.335938 701.6875 1240.449219 698.167969 C 1241.535156 697.425781 1242.386719 697.296875 1243.527344 698.058594 C 1248.378906 701.285156 1253.683594 703.46875 1259.382812 704.71875 C 1259.773438 704.804688 1260.402344 704.699219 1260.429688 705.304688 C 1260.453125 705.796875 1259.914062 705.976562 1259.554688 706.214844 C 1253.140625 710.417969 1246.746094 714.652344 1240.296875 718.796875 C 1236.519531 721.222656 1233.011719 724.171875 1228.734375 725.699219 C 1212.460938 731.515625 1193.15625 723.148438 1190.546875 703.980469 C 1190.417969 703.042969 1190.460938 702.082031 1190.457031 701.132812 C 1190.453125 678.332031 1190.457031 655.535156 1190.453125 632.734375 Z M 1190.453125 632.734375 " clip-rule="nonzero"/></clipPath><clipPath id="ba963788e7"><path d="M 0.398438 0.441406 L 168.878906 0.441406 L 168.878906 192.878906 L 0.398438 192.878906 Z M 0.398438 0.441406 " clip-rule="nonzero"/></clipPath><clipPath id="fce0fd509a"><path d="M 0.453125 97.734375 C 0.453125 75.378906 0.441406 53.023438 0.457031 30.664062 C 0.464844 15.261719 10.316406 3.464844 25.546875 0.949219 C 32.839844 -0.253906 39.582031 1.730469 45.925781 5.414062 C 72.445312 20.808594 98.996094 36.152344 125.359375 51.8125 C 135 57.539062 144.777344 63.042969 154.351562 68.871094 C 173.382812 80.457031 173.78125 107.773438 155.15625 119.988281 C 147.371094 125.097656 139.503906 130.085938 131.667969 135.125 C 131.242188 135.398438 130.808594 135.660156 130.355469 135.894531 C 129.632812 136.261719 129.394531 135.886719 129.523438 135.234375 C 129.691406 134.367188 129.945312 133.515625 130.171875 132.660156 C 131.511719 127.652344 131.632812 122.523438 131.640625 117.394531 C 131.644531 115.824219 132.152344 114.8125 133.484375 113.976562 C 137.242188 111.625 140.921875 109.144531 144.660156 106.753906 C 154.359375 100.558594 154.253906 88.554688 144.332031 82.734375 C 121.054688 69.074219 97.722656 55.496094 74.421875 41.875 C 63.152344 35.289062 51.910156 28.664062 40.625 22.105469 C 37.234375 20.136719 33.855469 18.164062 29.667969 18.246094 C 22.449219 18.378906 17.316406 23.382812 17.3125 30.617188 C 17.296875 75.140625 17.308594 119.664062 17.285156 164.183594 C 17.285156 168.621094 18.84375 172.117188 22.902344 174.175781 C 27.015625 176.261719 31.144531 176.113281 35.011719 173.589844 C 40.210938 170.199219 45.335938 166.6875 50.449219 163.167969 C 51.535156 162.425781 52.386719 162.296875 53.527344 163.058594 C 58.378906 166.285156 63.683594 168.46875 69.382812 169.71875 C 69.773438 169.804688 70.402344 169.699219 70.429688 170.304688 C 70.453125 170.796875 69.914062 170.976562 69.554688 171.214844 C 63.140625 175.417969 56.746094 179.652344 50.296875 183.796875 C 46.519531 186.222656 43.011719 189.171875 38.734375 190.699219 C 22.460938 196.515625 3.15625 188.148438 0.546875 168.980469 C 0.417969 168.042969 0.460938 167.082031 0.457031 166.132812 C 0.453125 143.332031 0.457031 120.535156 0.453125 97.734375 Z M 0.453125 97.734375 " clip-rule="nonzero"/></clipPath><clipPath id="f5e03d6f99"><rect x="0" width="169" y="0" height="193"/></clipPath><clipPath id="9f1bcfd9a8"><path d="M 1229.519531 612.453125 L 1342.769531 612.453125 L 1342.769531 727.203125 L 1229.519531 727.203125 Z M 1229.519531 612.453125 " clip-rule="nonzero"/></clipPath><clipPath id="a2e1184dca"><path d="M 933.445312 593.679688 L 1022 593.679688 L 1022 727.929688 L 933.445312 727.929688 Z M 933.445312 593.679688 " clip-rule="nonzero"/></clipPath><clipPath id="92329a3ba6"><path d="M 824.40625 559.246094 L 924.292969 559.246094 L 924.292969 690 L 824.40625 690 Z M 824.40625 559.246094 " clip-rule="nonzero"/></clipPath><clipPath id="0d0c3825b6"><path d="M 824.820312 602.863281 C 824.820312 588.992188 824.832031 575.125 824.792969 561.257812 C 824.789062 560.058594 825.023438 559.617188 826.347656 559.636719 C 831.871094 559.71875 837.398438 559.707031 842.921875 559.640625 C 844.089844 559.625 844.355469 559.976562 844.355469 561.09375 C 844.332031 587.460938 844.34375 613.832031 844.347656 640.195312 C 844.347656 644.457031 844.742188 648.660156 846.183594 652.699219 C 849.089844 660.84375 854.640625 666.414062 862.8125 669.195312 C 871.410156 672.125 880.039062 671.984375 888.28125 668.042969 C 898.164062 663.316406 903.058594 654.972656 904.375 644.324219 C 904.589844 642.59375 904.625 640.851562 904.625 639.105469 C 904.617188 613.320312 904.617188 587.53125 904.628906 561.746094 C 904.628906 559.375 904.3125 559.6875 906.660156 559.679688 C 912.0625 559.65625 917.460938 559.691406 922.859375 559.640625 C 923.910156 559.628906 924.289062 559.855469 924.285156 561 C 924.257812 587.699219 924.34375 614.398438 924.242188 641.097656 C 924.191406 653.214844 920.535156 664.195312 912.703125 673.597656 C 906.6875 680.824219 898.96875 685.464844 889.917969 687.769531 C 876.597656 691.160156 863.417969 690.75 850.863281 684.796875 C 837.019531 678.230469 828.832031 667.09375 825.808594 652.121094 C 825.046875 648.359375 824.808594 644.5625 824.8125 640.734375 C 824.832031 628.109375 824.820312 615.484375 824.820312 602.863281 Z M 824.820312 602.863281 " clip-rule="nonzero"/></clipPath><clipPath id="83fc6acc86"><path d="M 0.640625 0.441406 L 100.292969 0.441406 L 100.292969 131 L 0.640625 131 Z M 0.640625 0.441406 " clip-rule="nonzero"/></clipPath><clipPath id="7c8515e299"><path d="M 0.820312 43.863281 C 0.820312 29.992188 0.832031 16.125 0.792969 2.257812 C 0.789062 1.058594 1.023438 0.617188 2.347656 0.636719 C 7.871094 0.71875 13.398438 0.707031 18.921875 0.640625 C 20.089844 0.625 20.355469 0.976562 20.355469 2.09375 C 20.332031 28.460938 20.34375 54.832031 20.347656 81.195312 C 20.347656 85.457031 20.742188 89.660156 22.183594 93.699219 C 25.089844 101.84375 30.640625 107.414062 38.8125 110.195312 C 47.410156 113.125 56.039062 112.984375 64.28125 109.042969 C 74.164062 104.316406 79.058594 95.972656 80.375 85.324219 C 80.589844 83.59375 80.625 81.851562 80.625 80.105469 C 80.617188 54.320312 80.617188 28.53125 80.628906 2.746094 C 80.628906 0.375 80.3125 0.6875 82.660156 0.679688 C 88.0625 0.65625 93.460938 0.691406 98.859375 0.640625 C 99.910156 0.628906 100.289062 0.855469 100.285156 2 C 100.257812 28.699219 100.34375 55.398438 100.242188 82.097656 C 100.191406 94.214844 96.535156 105.195312 88.703125 114.597656 C 82.6875 121.824219 74.96875 126.464844 65.917969 128.769531 C 52.597656 132.160156 39.417969 131.75 26.863281 125.796875 C 13.019531 119.230469 4.832031 108.09375 1.808594 93.121094 C 1.046875 89.359375 0.808594 85.5625 0.8125 81.734375 C 0.832031 69.109375 0.820312 56.484375 0.820312 43.863281 Z M 0.820312 43.863281 " clip-rule="nonzero"/></clipPath><clipPath id="898c89d1ed"><rect x="0" width="101" y="0" height="131"/></clipPath><clipPath id="310151d31e"><path d="M 1064.589844 593.371094 L 1150.839844 593.371094 L 1150.839844 689 L 1064.589844 689 Z M 1064.589844 593.371094 " clip-rule="nonzero"/></clipPath><clipPath id="4b9fd3cc7e"><path d="M 1037.199219 562.332031 L 1056.203125 562.332031 L 1056.203125 689.65625 L 1037.199219 689.65625 Z M 1037.199219 562.332031 " clip-rule="nonzero"/></clipPath><clipPath id="55541f5425"><path d="M 1037.226562 625.96875 C 1037.226562 605.3125 1037.226562 584.65625 1037.226562 564 C 1037.226562 562.378906 1037.226562 562.375 1038.832031 562.375 C 1044.152344 562.367188 1049.476562 562.390625 1054.796875 562.332031 C 1055.871094 562.320312 1056.203125 562.566406 1056.203125 563.699219 C 1056.175781 602.515625 1056.183594 641.332031 1056.1875 680.148438 C 1056.1875 682.847656 1056.140625 685.554688 1056.203125 688.25 C 1056.222656 689.246094 1055.996094 689.613281 1054.914062 689.605469 C 1049.507812 689.550781 1044.101562 689.546875 1038.695312 689.613281 C 1037.453125 689.632812 1037.195312 689.222656 1037.199219 688.058594 C 1037.230469 667.359375 1037.222656 646.664062 1037.222656 625.96875 Z M 1037.226562 625.96875 " clip-rule="nonzero"/></clipPath><clipPath id="df1316af3c"><path d="M 0.199219 0.332031 L 19.203125 0.332031 L 19.203125 127.65625 L 0.199219 127.65625 Z M 0.199219 0.332031 " clip-rule="nonzero"/></clipPath><clipPath id="2e80a9c8e2"><path d="M 0.226562 63.96875 C 0.226562 43.3125 0.226562 22.65625 0.226562 2 C 0.226562 0.378906 0.226562 0.375 1.832031 0.375 C 7.152344 0.367188 12.476562 0.390625 17.796875 0.332031 C 18.871094 0.320312 19.203125 0.566406 19.203125 1.699219 C 19.175781 40.515625 19.183594 79.332031 19.1875 118.148438 C 19.1875 120.847656 19.140625 123.554688 19.203125 126.25 C 19.222656 127.246094 18.996094 127.613281 17.914062 127.605469 C 12.507812 127.550781 7.101562 127.546875 1.695312 127.613281 C 0.453125 127.632812 0.195312 127.222656 0.199219 126.058594 C 0.230469 105.359375 0.222656 84.664062 0.222656 63.96875 Z M 0.226562 63.96875 " clip-rule="nonzero"/></clipPath><clipPath id="f4fe72055f"><rect x="0" width="20" y="0" height="128"/></clipPath><clipPath id="d896060e1e"><rect x="0" width="568" y="0" height="194"/></clipPath></defs><rect x="-144" width="1728" fill="#ffffff" y="-80.999999" height="971.999992" fill-opacity="1"/><rect x="-144" width="1728" fill="#3a3a3a" y="-80.999999" height="971.999992" fill-opacity="1"/><g clip-path="url(#e24bbe7c0e)"><g clip-path="url(#00ce2377e2)"><g transform="matrix(1, 0, 0, 1, 1190, 535)"><g clip-path="url(#f5e03d6f99)"><g clip-path="url(#ba963788e7)"><g clip-path="url(#fce0fd509a)"><path fill="#75c043" d="M 0.449219 0.597656 L 168.878906 0.597656 L 168.878906 192.378906 L 0.449219 192.378906 Z M 0.449219 0.597656 " fill-opacity="1" fill-rule="nonzero"/></g></g></g></g></g></g><g clip-path="url(#9f1bcfd9a8)"><path fill="#75c043" d="M 1269.679688 677.78125 C 1255.9375 677.78125 1244.796875 666.640625 1244.796875 652.894531 C 1244.796875 639.152344 1255.9375 628.011719 1269.679688 628.011719 C 1283.425781 628.011719 1294.5625 639.152344 1294.5625 652.894531 C 1294.5625 666.640625 1283.425781 677.78125 1269.679688 677.78125 M 1339.511719 711.175781 C 1327.417969 699.246094 1315.816406 686.851562 1303.886719 674.757812 L 1303.769531 674.617188 C 1307.839844 668.339844 1310.1875 660.851562 1310.1875 652.800781 C 1310.1875 630.523438 1292.144531 612.453125 1269.867188 612.453125 C 1247.589844 612.453125 1229.519531 630.523438 1229.519531 652.800781 C 1229.519531 675.085938 1247.589844 693.128906 1269.867188 693.128906 C 1277.773438 693.128906 1285.144531 690.851562 1291.351562 686.921875 L 1291.539062 687.082031 C 1295.210938 691.152344 1299.003906 695.128906 1302.746094 699.152344 C 1310.558594 707.550781 1318.328125 716.015625 1326.210938 724.363281 C 1329.910156 728.25 1335.046875 728.015625 1339.117188 723.992188 C 1343.234375 719.898438 1343.464844 715.0625 1339.511719 711.175781 " fill-opacity="1" fill-rule="nonzero"/></g><g clip-path="url(#a2e1184dca)"><path fill="#ffffff" d="M 977.972656 668.941406 C 986.277344 668.933594 994.121094 664.601562 998.691406 657.339844 C 1003.390625 649.878906 1004.359375 641.71875 1002.855469 633.179688 C 1001.941406 627.984375 1000 623.214844 996.386719 619.277344 C 984.835938 606.683594 963.582031 609.726562 955.863281 625.082031 C 952.027344 632.714844 951.550781 640.753906 953.449219 648.949219 C 956.320312 661.328125 965.761719 668.949219 977.972656 668.941406 M 1003.480469 606.644531 C 1003.480469 603.617188 1003.488281 600.730469 1003.480469 597.847656 C 1003.476562 595.101562 1003.46875 595.101562 1006.175781 595.09375 C 1010.992188 595.085938 1015.808594 595.109375 1020.625 595.054688 C 1021.652344 595.042969 1021.953125 595.332031 1021.953125 596.375 C 1021.929688 626.214844 1021.945312 656.054688 1021.929688 685.894531 C 1021.925781 694.070312 1020.007812 701.761719 1015.796875 708.8125 C 1012.207031 714.8125 1007.148438 719.265625 1000.964844 722.453125 C 986.285156 730.019531 963.816406 729.074219 949.675781 718.824219 C 944.59375 715.140625 940.523438 710.546875 937.09375 705.34375 C 936.761719 704.84375 936.820312 704.570312 937.289062 704.234375 C 941.660156 701.074219 946.03125 697.914062 950.378906 694.71875 C 951.085938 694.203125 951.28125 694.648438 951.574219 695.132812 C 953.398438 698.128906 955.558594 700.847656 958.234375 703.136719 C 962.230469 706.558594 966.886719 708.46875 972.078125 709.140625 C 976.867188 709.765625 981.597656 709.609375 986.253906 708.21875 C 995.066406 705.585938 1000.242188 699.570312 1002.453125 690.816406 C 1003.1875 687.910156 1003.515625 684.949219 1003.480469 681.949219 C 1003.453125 679.214844 1003.476562 676.484375 1003.476562 673.621094 C 1002.847656 673.871094 1002.589844 674.367188 1002.257812 674.738281 C 994.308594 683.601562 984.28125 687.234375 972.5625 686.289062 C 959.824219 685.257812 949.601562 679.578125 942.203125 669.101562 C 937.390625 662.285156 934.699219 654.621094 933.8125 646.347656 C 932.792969 636.890625 933.816406 627.671875 937.75 618.945312 C 943.480469 606.21875 952.878906 597.683594 966.742188 594.714844 C 974.992188 592.945312 983.179688 593.332031 991.023438 596.808594 C 995.839844 598.941406 1000.054688 601.878906 1003.0625 606.328125 C 1003.121094 606.414062 1003.238281 606.460938 1003.480469 606.644531 " fill-opacity="1" fill-rule="nonzero"/></g><g clip-path="url(#92329a3ba6)"><g clip-path="url(#0d0c3825b6)"><g transform="matrix(1, 0, 0, 1, 824, 559)"><g clip-path="url(#898c89d1ed)"><g clip-path="url(#83fc6acc86)"><g clip-path="url(#7c8515e299)"><path fill="#ffffff" d="M 0.792969 0.636719 L 100.292969 0.636719 L 100.292969 130.839844 L 0.792969 130.839844 Z M 0.792969 0.636719 " fill-opacity="1" fill-rule="nonzero"/></g></g></g></g></g></g><g clip-path="url(#310151d31e)"><path fill="#ffffff" d="M 1108.035156 631.238281 L 1108.035156 631.226562 C 1115.460938 631.226562 1122.886719 631.210938 1130.308594 631.246094 C 1131.285156 631.25 1131.496094 630.980469 1131.363281 630.042969 C 1130.675781 625.121094 1128.675781 620.8125 1125.210938 617.273438 C 1118.863281 610.796875 1111.027344 609.144531 1102.523438 611.285156 C 1092.796875 613.734375 1087.253906 620.523438 1084.757812 630.035156 C 1084.46875 631.136719 1084.804688 631.253906 1085.761719 631.253906 C 1093.183594 631.226562 1100.609375 631.238281 1108.035156 631.238281 M 1117.242188 646.417969 C 1106.695312 646.417969 1096.148438 646.433594 1085.601562 646.394531 C 1084.496094 646.390625 1084.160156 646.636719 1084.328125 647.773438 C 1086.082031 659.683594 1093.566406 668.722656 1105.332031 670.632812 C 1116.441406 672.4375 1125.753906 669.058594 1132.558594 659.78125 C 1133.148438 658.972656 1133.488281 658.824219 1134.351562 659.472656 C 1138.5625 662.640625 1142.824219 665.742188 1147.09375 668.832031 C 1147.691406 669.261719 1147.683594 669.535156 1147.285156 670.101562 C 1139.820312 680.777344 1129.628906 686.960938 1116.703125 688.523438 C 1106.144531 689.800781 1096.089844 688.164062 1086.8125 682.765625 C 1079.230469 678.351562 1073.730469 671.984375 1069.863281 664.183594 C 1064.914062 654.199219 1063.746094 643.609375 1065.140625 632.679688 C 1066.609375 621.183594 1071.476562 611.371094 1080.191406 603.632812 C 1085.539062 598.882812 1091.851562 595.871094 1098.847656 594.464844 C 1109.054688 592.410156 1119.023438 593.074219 1128.425781 597.933594 C 1137.726562 602.738281 1143.777344 610.390625 1147.351562 620.101562 C 1149.496094 625.917969 1150.339844 631.972656 1150.390625 638.148438 C 1150.414062 640.472656 1150.324219 642.796875 1150.371094 645.121094 C 1150.390625 646.15625 1150.03125 646.441406 1149.003906 646.4375 C 1138.417969 646.402344 1127.828125 646.414062 1117.242188 646.417969 " fill-opacity="1" fill-rule="nonzero"/></g><g clip-path="url(#4b9fd3cc7e)"><g clip-path="url(#55541f5425)"><g transform="matrix(1, 0, 0, 1, 1037, 562)"><g clip-path="url(#f4fe72055f)"><g clip-path="url(#df1316af3c)"><g clip-path="url(#2e80a9c8e2)"><path fill="#ffffff" d="M 0.199219 0.332031 L 19.203125 0.332031 L 19.203125 127.582031 L 0.199219 127.582031 Z M 0.199219 0.332031 " fill-opacity="1" fill-rule="nonzero"/></g></g></g></g></g></g><g transform="matrix(1, 0, 0, 1, 80, 114)"><g clip-path="url(#d896060e1e)"><g fill="#ffffff" fill-opacity="1"><g transform="translate(1.000002, 83.268412)"><g><path d="M 42.46875 -42.5625 L 30.640625 0 L 18.34375 0 L 1.859375 -62.28125 L 15.359375 -62.28125 L 25.15625 -17.171875 L 25.5 -17.171875 L 37.15625 -62.28125 L 48.171875 -62.28125 L 59.8125 -17.171875 L 60.171875 -17.171875 L 70 -62.28125 L 83.515625 -62.28125 L 66.984375 0 L 54.6875 0 L 42.859375 -42.5625 Z M 42.46875 -42.5625 "/></g></g></g><g fill="#ffffff" fill-opacity="1"><g transform="translate(84.540261, 83.268412)"><g><path d="M 4.40625 0 L 4.40625 -62.28125 L 16.78125 -62.28125 L 16.78125 -38.03125 L 17.046875 -38.03125 C 18.285156 -40.925781 20.140625 -43.164062 22.609375 -44.75 C 25.085938 -46.332031 28.082031 -47.125 31.59375 -47.125 C 35.019531 -47.125 37.929688 -46.421875 40.328125 -45.015625 C 42.734375 -43.609375 44.566406 -41.609375 45.828125 -39.015625 C 47.097656 -36.421875 47.734375 -33.34375 47.734375 -29.78125 L 47.734375 0 L 35.125 0 L 35.125 -27.109375 C 35.125 -30.097656 34.394531 -32.441406 32.9375 -34.140625 C 31.488281 -35.835938 29.328125 -36.6875 26.453125 -36.6875 C 24.472656 -36.6875 22.773438 -36.253906 21.359375 -35.390625 C 19.953125 -34.523438 18.875 -33.320312 18.125 -31.78125 C 17.375 -30.25 17 -28.457031 17 -26.40625 L 17 0 Z M 4.40625 0 "/></g></g></g><g fill="#ffffff" fill-opacity="1"><g transform="translate(134.207429, 83.268412)"><g><path d="M 10.015625 17.140625 C 9.898438 17.140625 9.609375 17.140625 9.140625 17.140625 C 8.679688 17.140625 8.171875 17.128906 7.609375 17.109375 C 7.054688 17.097656 6.546875 17.082031 6.078125 17.0625 C 5.617188 17.050781 5.347656 17.03125 5.265625 17 L 5.265625 7.296875 C 5.410156 7.328125 5.703125 7.347656 6.140625 7.359375 C 6.585938 7.367188 7.039062 7.375 7.5 7.375 C 7.96875 7.375 8.273438 7.375 8.421875 7.375 C 10.722656 7.375 12.484375 6.976562 13.703125 6.1875 C 14.921875 5.394531 15.75 4.082031 16.1875 2.25 C 16.1875 2.1875 16.222656 1.984375 16.296875 1.640625 C 16.367188 1.296875 16.4375 0.957031 16.5 0.625 C 16.570312 0.289062 16.597656 0.0976562 16.578125 0.046875 L 0.46875 -46.265625 L 14.328125 -46.265625 L 24.171875 -10.09375 L 24.390625 -10.09375 L 34.21875 -46.265625 L 47.515625 -46.265625 L 31.59375 1.03125 C 30.269531 4.976562 28.6875 8.128906 26.84375 10.484375 C 25 12.847656 22.71875 14.546875 20 15.578125 C 17.28125 16.617188 13.953125 17.140625 10.015625 17.140625 Z M 10.015625 17.140625 "/></g></g></g><g fill="#ffffff" fill-opacity="1"><g transform="translate(180.422623, 83.268412)"><g/></g></g><g fill="#ffffff" fill-opacity="1"><g transform="translate(196.130533, 83.268412)"><g><path d="M 69.015625 -46.265625 L 56.75 0 L 43.328125 0 L 34.953125 -32.71875 L 34.703125 -32.71875 L 26.375 0 L 13.125 0 L 0.8125 -46.265625 L 13.515625 -46.265625 L 20.5 -11.953125 L 20.765625 -11.953125 L 28.953125 -46.265625 L 41.046875 -46.265625 L 49.28125 -11.953125 L 49.546875 -11.953125 L 56.578125 -46.265625 Z M 69.015625 -46.265625 "/></g></g></g><g fill="#ffffff" fill-opacity="1"><g transform="translate(263.532377, 83.268412)"><g><path d="M 24.859375 -37.9375 C 23.015625 -37.9375 21.375 -37.503906 19.9375 -36.640625 C 18.5 -35.773438 17.34375 -34.59375 16.46875 -33.09375 C 15.59375 -31.601562 15.082031 -29.894531 14.9375 -27.96875 L 34.578125 -27.96875 C 34.484375 -29.957031 34.019531 -31.695312 33.1875 -33.1875 C 32.351562 -34.6875 31.222656 -35.851562 29.796875 -36.6875 C 28.378906 -37.519531 26.734375 -37.9375 24.859375 -37.9375 Z M 34.75 -14.15625 L 46.3125 -14.15625 C 45.851562 -11.132812 44.679688 -8.488281 42.796875 -6.21875 C 40.910156 -3.945312 38.460938 -2.175781 35.453125 -0.90625 C 32.453125 0.363281 29.035156 1 25.203125 1 C 20.453125 1 16.375 0.0351562 12.96875 -1.890625 C 9.5625 -3.828125 6.953125 -6.582031 5.140625 -10.15625 C 3.328125 -13.738281 2.421875 -17.992188 2.421875 -22.921875 C 2.421875 -26.597656 2.9375 -29.929688 3.96875 -32.921875 C 5.007812 -35.921875 6.5 -38.484375 8.4375 -40.609375 C 10.375 -42.742188 12.71875 -44.382812 15.46875 -45.53125 C 18.21875 -46.6875 21.304688 -47.265625 24.734375 -47.265625 C 29.222656 -47.265625 33.101562 -46.304688 36.375 -44.390625 C 39.65625 -42.472656 42.195312 -39.78125 44 -36.3125 C 45.800781 -32.851562 46.703125 -28.773438 46.703125 -24.078125 L 46.703125 -20.234375 L 14.796875 -20.234375 L 14.796875 -19.46875 C 14.796875 -17.28125 15.234375 -15.34375 16.109375 -13.65625 C 16.992188 -11.976562 18.234375 -10.671875 19.828125 -9.734375 C 21.429688 -8.796875 23.296875 -8.328125 25.421875 -8.328125 C 27.722656 -8.328125 29.707031 -8.859375 31.375 -9.921875 C 33.039062 -10.992188 34.164062 -12.40625 34.75 -14.15625 Z M 34.75 -14.15625 "/></g></g></g><g fill="#ffffff" fill-opacity="1"><g transform="translate(310.826343, 83.268412)"><g/></g></g><g fill="#ffffff" fill-opacity="1"><g transform="translate(326.534253, 83.268412)"><g><path d="M 31.59375 0.734375 C 28.195312 0.734375 25.242188 -0.0351562 22.734375 -1.578125 C 20.234375 -3.117188 18.351562 -5.238281 17.09375 -7.9375 L 16.828125 -7.9375 L 16.828125 0 L 4.40625 0 L 4.40625 -62.28125 L 17 -62.28125 L 17 -38.234375 L 17.265625 -38.234375 C 18.523438 -40.972656 20.394531 -43.117188 22.875 -44.671875 C 25.351562 -46.222656 28.242188 -47 31.546875 -47 C 35.429688 -47 38.78125 -46.046875 41.59375 -44.140625 C 44.414062 -42.242188 46.582031 -39.507812 48.09375 -35.9375 C 49.601562 -32.375 50.359375 -28.109375 50.359375 -23.140625 C 50.359375 -18.179688 49.601562 -13.914062 48.09375 -10.34375 C 46.582031 -6.78125 44.425781 -4.039062 41.625 -2.125 C 38.820312 -0.21875 35.476562 0.734375 31.59375 0.734375 Z M 27.234375 -36.90625 C 25.222656 -36.90625 23.4375 -36.328125 21.875 -35.171875 C 20.320312 -34.023438 19.113281 -32.421875 18.25 -30.359375 C 17.394531 -28.304688 16.96875 -25.898438 16.96875 -23.140625 C 16.96875 -20.347656 17.394531 -17.921875 18.25 -15.859375 C 19.113281 -13.804688 20.316406 -12.21875 21.859375 -11.09375 C 23.398438 -9.96875 25.191406 -9.40625 27.234375 -9.40625 C 29.335938 -9.40625 31.148438 -9.957031 32.671875 -11.0625 C 34.191406 -12.175781 35.367188 -13.757812 36.203125 -15.8125 C 37.046875 -17.875 37.46875 -20.316406 37.46875 -23.140625 C 37.46875 -25.953125 37.046875 -28.382812 36.203125 -30.4375 C 35.367188 -32.5 34.191406 -34.09375 32.671875 -35.21875 C 31.148438 -36.34375 29.335938 -36.90625 27.234375 -36.90625 Z M 27.234375 -36.90625 "/></g></g></g><g fill="#ffffff" fill-opacity="1"><g transform="translate(377.539149, 83.268412)"><g><path d="M 46.828125 -46.265625 L 46.828125 0 L 34.65625 0 L 34.65625 -8.328125 L 34.390625 -8.328125 C 33.242188 -5.421875 31.523438 -3.160156 29.234375 -1.546875 C 26.953125 0.0546875 24.054688 0.859375 20.546875 0.859375 C 17.203125 0.859375 14.28125 0.167969 11.78125 -1.203125 C 9.28125 -2.585938 7.335938 -4.570312 5.953125 -7.15625 C 4.578125 -9.75 3.890625 -12.84375 3.890625 -16.4375 L 3.890625 -46.265625 L 16.484375 -46.265625 L 16.484375 -19.078125 C 16.484375 -15.992188 17.222656 -13.644531 18.703125 -12.03125 C 20.191406 -10.425781 22.332031 -9.625 25.125 -9.625 C 26.988281 -9.625 28.601562 -10.039062 29.96875 -10.875 C 31.34375 -11.707031 32.394531 -12.882812 33.125 -14.40625 C 33.851562 -15.9375 34.21875 -17.722656 34.21875 -19.765625 L 34.21875 -46.265625 Z M 46.828125 -46.265625 "/></g></g></g><g fill="#ffffff" fill-opacity="1"><g transform="translate(426.688565, 83.268412)"><g><path d="M 4.3125 0 L 4.3125 -46.265625 L 16.921875 -46.265625 L 16.921875 0 Z M 10.625 -51.359375 C 9.351562 -51.359375 8.207031 -51.648438 7.1875 -52.234375 C 6.164062 -52.828125 5.359375 -53.613281 4.765625 -54.59375 C 4.179688 -55.570312 3.890625 -56.664062 3.890625 -57.875 C 3.890625 -59.113281 4.179688 -60.222656 4.765625 -61.203125 C 5.359375 -62.179688 6.164062 -62.957031 7.1875 -63.53125 C 8.207031 -64.101562 9.351562 -64.390625 10.625 -64.390625 C 11.882812 -64.390625 13.023438 -64.101562 14.046875 -63.53125 C 15.066406 -62.957031 15.867188 -62.179688 16.453125 -61.203125 C 17.046875 -60.222656 17.34375 -59.113281 17.34375 -57.875 C 17.34375 -56.664062 17.046875 -55.570312 16.453125 -54.59375 C 15.867188 -53.613281 15.066406 -52.828125 14.046875 -52.234375 C 13.023438 -51.648438 11.882812 -51.359375 10.625 -51.359375 Z M 10.625 -51.359375 "/></g></g></g><g fill="#ffffff" fill-opacity="1"><g transform="translate(446.107405, 83.268412)"><g><path d="M 4.40625 0 L 4.40625 -62.28125 L 17 -62.28125 L 17 0 Z M 4.40625 0 "/></g></g></g><g fill="#ffffff" fill-opacity="1"><g transform="translate(465.74201, 83.268412)"><g><path d="M 7.46875 -56.921875 L 20.0625 -56.921875 L 20.0625 -46.265625 L 28.609375 -46.265625 L 28.609375 -36.765625 L 20.0625 -36.765625 L 20.0625 -14.625 C 20.0625 -11.144531 21.875 -9.40625 25.5 -9.40625 C 26.6875 -9.40625 27.710938 -9.476562 28.578125 -9.625 L 28.578125 -0.34375 C 27.941406 -0.195312 27.097656 -0.078125 26.046875 0.015625 C 24.992188 0.117188 23.835938 0.171875 22.578125 0.171875 C 18.953125 0.171875 16.03125 -0.25 13.8125 -1.09375 C 11.59375 -1.945312 9.976562 -3.304688 8.96875 -5.171875 C 7.96875 -7.046875 7.46875 -9.476562 7.46875 -12.46875 L 7.46875 -36.765625 L 0.953125 -36.765625 L 0.953125 -46.265625 L 7.46875 -46.265625 Z M 7.46875 -56.921875 "/></g></g></g><g fill="#ffffff" fill-opacity="1"><g transform="translate(1.000002, 171.128884)"><g><path d="M 18.21875 -62.28125 L 18.21875 -23.3125 C 18.21875 -20.65625 18.726562 -18.332031 19.75 -16.34375 C 20.769531 -14.363281 22.25 -12.828125 24.1875 -11.734375 C 26.132812 -10.640625 28.503906 -10.09375 31.296875 -10.09375 C 34.085938 -10.09375 36.445312 -10.640625 38.375 -11.734375 C 40.300781 -12.828125 41.773438 -14.363281 42.796875 -16.34375 C 43.816406 -18.332031 44.328125 -20.65625 44.328125 -23.3125 L 44.328125 -62.28125 L 57.359375 -62.28125 L 57.359375 -22.015625 C 57.359375 -18.585938 56.753906 -15.457031 55.546875 -12.625 C 54.335938 -9.789062 52.585938 -7.351562 50.296875 -5.3125 C 48.015625 -3.269531 45.269531 -1.691406 42.0625 -0.578125 C 38.851562 0.523438 35.265625 1.078125 31.296875 1.078125 C 27.296875 1.078125 23.691406 0.523438 20.484375 -0.578125 C 17.273438 -1.691406 14.523438 -3.269531 12.234375 -5.3125 C 9.941406 -7.351562 8.191406 -9.789062 6.984375 -12.625 C 5.773438 -15.457031 5.171875 -18.585938 5.171875 -22.015625 L 5.171875 -62.28125 Z M 18.21875 -62.28125 "/></g></g></g><g fill="#ffffff" fill-opacity="1"><g transform="translate(61.756876, 171.128884)"><g><path d="M 25.46875 -9.84375 C 27.5625 -9.84375 29.378906 -10.375 30.921875 -11.4375 C 32.460938 -12.5 33.65625 -14.03125 34.5 -16.03125 C 35.351562 -18.03125 35.78125 -20.425781 35.78125 -23.21875 C 35.78125 -26.007812 35.351562 -28.425781 34.5 -30.46875 C 33.65625 -32.507812 32.460938 -34.09375 30.921875 -35.21875 C 29.378906 -36.34375 27.5625 -36.90625 25.46875 -36.90625 C 23.394531 -36.90625 21.601562 -36.347656 20.09375 -35.234375 C 18.582031 -34.128906 17.410156 -32.554688 16.578125 -30.515625 C 15.742188 -28.472656 15.328125 -26.039062 15.328125 -23.21875 C 15.328125 -18.988281 16.234375 -15.703125 18.046875 -13.359375 C 19.859375 -11.015625 22.332031 -9.84375 25.46875 -9.84375 Z M 25.25 17.4375 C 21.1875 17.4375 17.609375 16.832031 14.515625 15.625 C 11.429688 14.414062 8.96875 12.738281 7.125 10.59375 C 5.28125 8.445312 4.1875 6.007812 3.84375 3.28125 L 16.1875 3.28125 C 16.675781 4.863281 17.769531 6.15625 19.46875 7.15625 C 21.164062 8.164062 23.207031 8.671875 25.59375 8.671875 C 28.84375 8.671875 31.34375 7.84375 33.09375 6.1875 C 34.851562 4.539062 35.734375 2.378906 35.734375 -0.296875 L 35.734375 -8.421875 L 35.484375 -8.421875 C 34.753906 -6.773438 33.691406 -5.332031 32.296875 -4.09375 C 30.910156 -2.863281 29.273438 -1.894531 27.390625 -1.1875 C 25.503906 -0.476562 23.4375 -0.125 21.1875 -0.125 C 17.414062 -0.125 14.117188 -1.050781 11.296875 -2.90625 C 8.484375 -4.769531 6.300781 -7.429688 4.75 -10.890625 C 3.195312 -14.359375 2.421875 -18.5 2.421875 -23.3125 C 2.421875 -28.195312 3.1875 -32.410156 4.71875 -35.953125 C 6.257812 -39.492188 8.445312 -42.21875 11.28125 -44.125 C 14.113281 -46.039062 17.488281 -47 21.40625 -47 C 24.738281 -47 27.648438 -46.191406 30.140625 -44.578125 C 32.628906 -42.972656 34.476562 -40.847656 35.6875 -38.203125 L 35.90625 -38.203125 L 35.90625 -46.265625 L 48.34375 -46.265625 L 48.34375 -0.640625 C 48.34375 3.035156 47.378906 6.222656 45.453125 8.921875 C 43.523438 11.628906 40.832031 13.722656 37.375 15.203125 C 33.925781 16.691406 29.882812 17.4375 25.25 17.4375 Z M 25.25 17.4375 "/></g></g></g><g fill="#ffffff" fill-opacity="1"><g transform="translate(112.416568, 171.128884)"><g><path d="M 4.40625 0 L 4.40625 -62.28125 L 17 -62.28125 L 17 0 Z M 4.40625 0 "/></g></g></g><g fill="#ffffff" fill-opacity="1"><g transform="translate(132.051146, 171.128884)"><g><path d="M 24.859375 -37.9375 C 23.015625 -37.9375 21.375 -37.503906 19.9375 -36.640625 C 18.5 -35.773438 17.34375 -34.59375 16.46875 -33.09375 C 15.59375 -31.601562 15.082031 -29.894531 14.9375 -27.96875 L 34.578125 -27.96875 C 34.484375 -29.957031 34.019531 -31.695312 33.1875 -33.1875 C 32.351562 -34.6875 31.222656 -35.851562 29.796875 -36.6875 C 28.378906 -37.519531 26.734375 -37.9375 24.859375 -37.9375 Z M 34.75 -14.15625 L 46.3125 -14.15625 C 45.851562 -11.132812 44.679688 -8.488281 42.796875 -6.21875 C 40.910156 -3.945312 38.460938 -2.175781 35.453125 -0.90625 C 32.453125 0.363281 29.035156 1 25.203125 1 C 20.453125 1 16.375 0.0351562 12.96875 -1.890625 C 9.5625 -3.828125 6.953125 -6.582031 5.140625 -10.15625 C 3.328125 -13.738281 2.421875 -17.992188 2.421875 -22.921875 C 2.421875 -26.597656 2.9375 -29.929688 3.96875 -32.921875 C 5.007812 -35.921875 6.5 -38.484375 8.4375 -40.609375 C 10.375 -42.742188 12.71875 -44.382812 15.46875 -45.53125 C 18.21875 -46.6875 21.304688 -47.265625 24.734375 -47.265625 C 29.222656 -47.265625 33.101562 -46.304688 36.375 -44.390625 C 39.65625 -42.472656 42.195312 -39.78125 44 -36.3125 C 45.800781 -32.851562 46.703125 -28.773438 46.703125 -24.078125 L 46.703125 -20.234375 L 14.796875 -20.234375 L 14.796875 -19.46875 C 14.796875 -17.28125 15.234375 -15.34375 16.109375 -13.65625 C 16.992188 -11.976562 18.234375 -10.671875 19.828125 -9.734375 C 21.429688 -8.796875 23.296875 -8.328125 25.421875 -8.328125 C 27.722656 -8.328125 29.707031 -8.859375 31.375 -9.921875 C 33.039062 -10.992188 34.164062 -12.40625 34.75 -14.15625 Z M 34.75 -14.15625 "/></g></g></g><g fill="#ffffff" fill-opacity="1"><g transform="translate(179.345112, 171.128884)"><g/></g></g><g fill="#ffffff" fill-opacity="1"><g transform="translate(195.053022, 171.128884)"><g><path d="M 4.40625 0 L 4.40625 -62.28125 L 17 -62.28125 L 17 0 Z M 4.40625 0 "/></g></g></g><g fill="#ffffff" fill-opacity="1"><g transform="translate(214.6876, 171.128884)"><g><path d="M 25.328125 1 C 20.671875 1 16.625 0.0390625 13.1875 -1.875 C 9.75 -3.789062 7.09375 -6.550781 5.21875 -10.15625 C 3.351562 -13.769531 2.421875 -18.109375 2.421875 -23.171875 C 2.421875 -28.179688 3.367188 -32.484375 5.265625 -36.078125 C 7.160156 -39.671875 9.828125 -42.429688 13.265625 -44.359375 C 16.703125 -46.296875 20.722656 -47.265625 25.328125 -47.265625 C 29.960938 -47.265625 33.992188 -46.296875 37.421875 -44.359375 C 40.847656 -42.429688 43.507812 -39.671875 45.40625 -36.078125 C 47.300781 -32.484375 48.25 -28.179688 48.25 -23.171875 C 48.25 -18.109375 47.304688 -13.769531 45.421875 -10.15625 C 43.535156 -6.550781 40.878906 -3.789062 37.453125 -1.875 C 34.035156 0.0390625 29.992188 1 25.328125 1 Z M 25.328125 -8.625 C 28.410156 -8.625 30.863281 -9.882812 32.6875 -12.40625 C 34.519531 -14.925781 35.4375 -18.503906 35.4375 -23.140625 C 35.4375 -27.734375 34.519531 -31.296875 32.6875 -33.828125 C 30.863281 -36.367188 28.410156 -37.640625 25.328125 -37.640625 C 23.285156 -37.640625 21.503906 -37.066406 19.984375 -35.921875 C 18.460938 -34.785156 17.28125 -33.140625 16.4375 -30.984375 C 15.601562 -28.828125 15.1875 -26.210938 15.1875 -23.140625 C 15.1875 -18.503906 16.097656 -14.925781 17.921875 -12.40625 C 19.753906 -9.882812 22.222656 -8.625 25.328125 -8.625 Z M 25.328125 -8.625 "/></g></g></g><g fill="#ffffff" fill-opacity="1"><g transform="translate(263.534979, 171.128884)"><g><path d="M 46.140625 -29.046875 L 34.4375 -29.046875 C 34.0625 -31.492188 33.085938 -33.492188 31.515625 -35.046875 C 29.953125 -36.597656 27.878906 -37.375 25.296875 -37.375 C 22.179688 -37.375 19.71875 -36.117188 17.90625 -33.609375 C 16.09375 -31.109375 15.1875 -27.628906 15.1875 -23.171875 C 15.1875 -18.628906 16.09375 -15.113281 17.90625 -12.625 C 19.71875 -10.132812 22.191406 -8.890625 25.328125 -8.890625 C 27.859375 -8.890625 29.914062 -9.597656 31.5 -11.015625 C 33.082031 -12.441406 34.0625 -14.425781 34.4375 -16.96875 L 46.1875 -16.96875 C 45.976562 -13.34375 44.972656 -10.179688 43.171875 -7.484375 C 41.378906 -4.796875 38.953125 -2.707031 35.890625 -1.21875 C 32.828125 0.257812 29.265625 1 25.203125 1 C 20.566406 1 16.535156 0.0351562 13.109375 -1.890625 C 9.691406 -3.828125 7.054688 -6.597656 5.203125 -10.203125 C 3.347656 -13.816406 2.421875 -18.140625 2.421875 -23.171875 C 2.421875 -28.117188 3.347656 -32.390625 5.203125 -35.984375 C 7.054688 -39.585938 9.6875 -42.367188 13.09375 -44.328125 C 16.507812 -46.285156 20.519531 -47.265625 25.125 -47.265625 C 28.257812 -47.265625 31.082031 -46.8125 33.59375 -45.90625 C 36.113281 -45 38.285156 -43.722656 40.109375 -42.078125 C 41.941406 -40.441406 43.367188 -38.515625 44.390625 -36.296875 C 45.410156 -34.078125 45.992188 -31.660156 46.140625 -29.046875 Z M 46.140625 -29.046875 "/></g></g></g><g fill="#ffffff" fill-opacity="1"><g transform="translate(309.922774, 171.128884)"><g><path d="M 21.96875 -8.375 C 23.8125 -8.375 25.488281 -8.738281 27 -9.46875 C 28.507812 -10.207031 29.71875 -11.222656 30.625 -12.515625 C 31.53125 -13.804688 31.984375 -15.289062 31.984375 -16.96875 L 31.984375 -20.328125 L 22.234375 -19.71875 C 19.867188 -19.550781 18.046875 -18.960938 16.765625 -17.953125 C 15.484375 -16.941406 14.84375 -15.617188 14.84375 -13.984375 C 14.84375 -12.253906 15.5 -10.882812 16.8125 -9.875 C 18.125 -8.875 19.84375 -8.375 21.96875 -8.375 Z M 17.828125 0.734375 C 14.890625 0.734375 12.25 0.144531 9.90625 -1.03125 C 7.5625 -2.21875 5.710938 -3.867188 4.359375 -5.984375 C 3.003906 -8.097656 2.328125 -10.535156 2.328125 -13.296875 C 2.328125 -17.492188 3.890625 -20.785156 7.015625 -23.171875 C 10.140625 -25.566406 14.578125 -26.9375 20.328125 -27.28125 L 31.984375 -27.96875 L 31.984375 -31.03125 C 31.984375 -33.1875 31.285156 -34.859375 29.890625 -36.046875 C 28.492188 -37.242188 26.601562 -37.84375 24.21875 -37.84375 C 21.851562 -37.84375 19.957031 -37.3125 18.53125 -36.25 C 17.113281 -35.1875 16.242188 -33.804688 15.921875 -32.109375 L 4.40625 -32.109375 C 4.570312 -35.097656 5.488281 -37.726562 7.15625 -40 C 8.832031 -42.28125 11.164062 -44.0625 14.15625 -45.34375 C 17.144531 -46.625 20.6875 -47.265625 24.78125 -47.265625 C 28.75 -47.265625 32.195312 -46.625 35.125 -45.34375 C 38.0625 -44.0625 40.335938 -42.257812 41.953125 -39.9375 C 43.566406 -37.625 44.375 -34.914062 44.375 -31.8125 L 44.375 0 L 32.203125 0 L 32.203125 -7.078125 L 31.9375 -7.078125 C 31.070312 -5.441406 29.898438 -4.039062 28.421875 -2.875 C 26.941406 -1.707031 25.285156 -0.8125 23.453125 -0.1875 C 21.628906 0.425781 19.753906 0.734375 17.828125 0.734375 Z M 17.828125 0.734375 "/></g></g></g><g fill="#ffffff" fill-opacity="1"><g transform="translate(356.526334, 171.128884)"><g><path d="M 4.40625 0 L 4.40625 -62.28125 L 17 -62.28125 L 17 0 Z M 4.40625 0 "/></g></g></g><g fill="#ffffff" fill-opacity="1"><g transform="translate(376.160912, 171.128884)"><g><path d="M 33.703125 -19.8125 L 5.359375 -19.8125 L 5.359375 -30.8125 L 33.703125 -30.8125 Z M 33.703125 -19.8125 "/></g></g></g><g fill="#ffffff" fill-opacity="1"><g transform="translate(413.443997, 171.128884)"><g><path d="M 7.46875 0 L 7.46875 -36.765625 L 1.171875 -36.765625 L 1.171875 -46.046875 L 7.46875 -46.046875 L 7.46875 -49.546875 C 7.46875 -52.566406 7.976562 -55.0625 9 -57.03125 C 10.019531 -59 11.644531 -60.457031 13.875 -61.40625 C 16.101562 -62.363281 19.046875 -62.84375 22.703125 -62.84375 C 23.878906 -62.84375 25.0625 -62.785156 26.25 -62.671875 C 27.445312 -62.554688 28.40625 -62.425781 29.125 -62.28125 L 29.125 -53.953125 C 28.664062 -54.035156 28.140625 -54.097656 27.546875 -54.140625 C 26.960938 -54.179688 26.351562 -54.203125 25.71875 -54.203125 C 23.644531 -54.203125 22.132812 -53.765625 21.1875 -52.890625 C 20.238281 -52.015625 19.765625 -50.753906 19.765625 -49.109375 L 19.765625 -46.046875 L 28.953125 -46.046875 L 28.953125 -36.765625 L 20.0625 -36.765625 L 20.0625 0 Z M 7.46875 0 "/></g></g></g><g fill="#ffffff" fill-opacity="1"><g transform="translate(443.132646, 171.128884)"><g><path d="M 4.3125 0 L 4.3125 -46.265625 L 16.921875 -46.265625 L 16.921875 0 Z M 10.625 -51.359375 C 9.351562 -51.359375 8.207031 -51.648438 7.1875 -52.234375 C 6.164062 -52.828125 5.359375 -53.613281 4.765625 -54.59375 C 4.179688 -55.570312 3.890625 -56.664062 3.890625 -57.875 C 3.890625 -59.113281 4.179688 -60.222656 4.765625 -61.203125 C 5.359375 -62.179688 6.164062 -62.957031 7.1875 -63.53125 C 8.207031 -64.101562 9.351562 -64.390625 10.625 -64.390625 C 11.882812 -64.390625 13.023438 -64.101562 14.046875 -63.53125 C 15.066406 -62.957031 15.867188 -62.179688 16.453125 -61.203125 C 17.046875 -60.222656 17.34375 -59.113281 17.34375 -57.875 C 17.34375 -56.664062 17.046875 -55.570312 16.453125 -54.59375 C 15.867188 -53.613281 15.066406 -52.828125 14.046875 -52.234375 C 13.023438 -51.648438 11.882812 -51.359375 10.625 -51.359375 Z M 10.625 -51.359375 "/></g></g></g><g fill="#ffffff" fill-opacity="1"><g transform="translate(462.551486, 171.128884)"><g><path d="M 4.09375 0 L 4.09375 -46.265625 L 16.265625 -46.265625 L 16.265625 -37.9375 L 16.53125 -37.9375 C 17.363281 -40.875 18.726562 -43.117188 20.625 -44.671875 C 22.53125 -46.222656 24.832031 -47 27.53125 -47 C 28.28125 -47 28.957031 -46.953125 29.5625 -46.859375 C 30.164062 -46.773438 30.6875 -46.664062 31.125 -46.53125 L 31.125 -35.4375 C 30.601562 -35.664062 29.9375 -35.84375 29.125 -35.96875 C 28.320312 -36.101562 27.460938 -36.171875 26.546875 -36.171875 C 23.429688 -36.171875 21.007812 -35.265625 19.28125 -33.453125 C 17.5625 -31.640625 16.703125 -29.109375 16.703125 -25.859375 L 16.703125 0 Z M 4.09375 0 "/></g></g></g><g fill="#ffffff" fill-opacity="1"><g transform="translate(492.930489, 171.128884)"><g><path d="M 3.328125 -32.671875 C 3.328125 -35.609375 4.125 -38.171875 5.71875 -40.359375 C 7.3125 -42.546875 9.578125 -44.242188 12.515625 -45.453125 C 15.453125 -46.660156 18.890625 -47.265625 22.828125 -47.265625 C 26.710938 -47.265625 30.085938 -46.648438 32.953125 -45.421875 C 35.816406 -44.203125 38.050781 -42.476562 39.65625 -40.25 C 41.269531 -38.019531 42.109375 -35.40625 42.171875 -32.40625 L 30.5625 -32.40625 C 30.445312 -34.28125 29.679688 -35.75 28.265625 -36.8125 C 26.859375 -37.875 24.988281 -38.40625 22.65625 -38.40625 C 20.46875 -38.40625 18.71875 -37.953125 17.40625 -37.046875 C 16.101562 -36.140625 15.453125 -34.941406 15.453125 -33.453125 C 15.453125 -31.203125 17.46875 -29.601562 21.5 -28.65625 L 30.34375 -26.765625 C 33.445312 -26.066406 35.957031 -25.171875 37.875 -24.078125 C 39.789062 -22.984375 41.1875 -21.625 42.0625 -20 C 42.9375 -18.375 43.375 -16.410156 43.375 -14.109375 C 43.375 -11.085938 42.503906 -8.441406 40.765625 -6.171875 C 39.023438 -3.898438 36.613281 -2.132812 33.53125 -0.875 C 30.457031 0.371094 26.875 1 22.78125 1 C 18.664062 1 15.113281 0.378906 12.125 -0.859375 C 9.132812 -2.097656 6.78125 -3.847656 5.0625 -6.109375 C 3.351562 -8.367188 2.382812 -10.992188 2.15625 -13.984375 L 14.453125 -13.984375 C 14.773438 -12.054688 15.675781 -10.550781 17.15625 -9.46875 C 18.632812 -8.394531 20.628906 -7.859375 23.140625 -7.859375 C 25.523438 -7.859375 27.398438 -8.300781 28.765625 -9.1875 C 30.128906 -10.082031 30.8125 -11.28125 30.8125 -12.78125 C 30.8125 -13.957031 30.378906 -14.894531 29.515625 -15.59375 C 28.648438 -16.300781 27.1875 -16.898438 25.125 -17.390625 L 16.578125 -19.296875 C 12.203125 -20.296875 8.898438 -21.925781 6.671875 -24.1875 C 4.441406 -26.445312 3.328125 -29.273438 3.328125 -32.671875 Z M 3.328125 -32.671875 "/></g></g></g><g fill="#ffffff" fill-opacity="1"><g transform="translate(536.686125, 171.128884)"><g><path d="M 7.46875 -56.921875 L 20.0625 -56.921875 L 20.0625 -46.265625 L 28.609375 -46.265625 L 28.609375 -36.765625 L 20.0625 -36.765625 L 20.0625 -14.625 C 20.0625 -11.144531 21.875 -9.40625 25.5 -9.40625 C 26.6875 -9.40625 27.710938 -9.476562 28.578125 -9.625 L 28.578125 -0.34375 C 27.941406 -0.195312 27.097656 -0.078125 26.046875 0.015625 C 24.992188 0.117188 23.835938 0.171875 22.578125 0.171875 C 18.953125 0.171875 16.03125 -0.25 13.8125 -1.09375 C 11.59375 -1.945312 9.976562 -3.304688 8.96875 -5.171875 C 7.96875 -7.046875 7.46875 -9.476562 7.46875 -12.46875 L 7.46875 -36.765625 L 0.953125 -36.765625 L 0.953125 -46.265625 L 7.46875 -46.265625 Z M 7.46875 -56.921875 "/></g></g></g></g></g><g fill="#ffffff" fill-opacity="1"><g transform="translate(81.000002, 107.049975)"><g><path d="M 1.921875 -19.734375 L 8.953125 -19.734375 C 9.878906 -19.734375 10.726562 -19.578125 11.5 -19.265625 C 12.269531 -18.960938 12.9375 -18.53125 13.5 -17.96875 C 14.0625 -17.40625 14.492188 -16.734375 14.796875 -15.953125 C 15.109375 -15.179688 15.265625 -14.332031 15.265625 -13.40625 C 15.265625 -12.457031 15.109375 -11.597656 14.796875 -10.828125 C 14.492188 -10.054688 14.054688 -9.382812 13.484375 -8.8125 C 12.921875 -8.25 12.253906 -7.8125 11.484375 -7.5 C 10.710938 -7.195312 9.859375 -7.046875 8.921875 -7.046875 L 4.375 -7.046875 L 4.375 0 L 1.921875 0 Z M 4.375 -17.546875 L 4.375 -9.234375 L 8.3125 -9.234375 C 9.726562 -9.234375 10.820312 -9.597656 11.59375 -10.328125 C 12.363281 -11.066406 12.75 -12.09375 12.75 -13.40625 C 12.75 -14.707031 12.363281 -15.722656 11.59375 -16.453125 C 10.820312 -17.179688 9.726562 -17.546875 8.3125 -17.546875 Z M 4.375 -17.546875 "/></g></g></g><g fill="#ffffff" fill-opacity="1"><g transform="translate(96.611585, 107.049975)"><g><path d="M 1.546875 0 L 1.546875 -14.21875 L 3.78125 -14.21875 L 3.78125 -11.890625 L 3.84375 -11.890625 C 4.082031 -12.679688 4.507812 -13.304688 5.125 -13.765625 C 5.738281 -14.234375 6.457031 -14.46875 7.28125 -14.46875 C 7.5 -14.46875 7.691406 -14.453125 7.859375 -14.421875 C 8.023438 -14.398438 8.15625 -14.382812 8.25 -14.375 L 8.25 -12.0625 C 8.15625 -12.09375 7.988281 -12.125 7.75 -12.15625 C 7.519531 -12.1875 7.257812 -12.203125 6.96875 -12.203125 C 6.363281 -12.203125 5.828125 -12.0625 5.359375 -11.78125 C 4.898438 -11.5 4.546875 -11.109375 4.296875 -10.609375 C 4.046875 -10.117188 3.921875 -9.535156 3.921875 -8.859375 L 3.921875 0 Z M 1.546875 0 "/></g></g></g><g fill="#ffffff" fill-opacity="1"><g transform="translate(103.993814, 107.049975)"><g><path d="M 7.4375 0.25 C 6.457031 0.25 5.5625 0.0742188 4.75 -0.265625 C 3.945312 -0.609375 3.253906 -1.097656 2.671875 -1.734375 C 2.085938 -2.367188 1.632812 -3.140625 1.3125 -4.046875 C 1 -4.960938 0.84375 -5.984375 0.84375 -7.109375 C 0.84375 -8.242188 1 -9.265625 1.3125 -10.171875 C 1.632812 -11.078125 2.085938 -11.847656 2.671875 -12.484375 C 3.253906 -13.128906 3.945312 -13.617188 4.75 -13.953125 C 5.5625 -14.296875 6.457031 -14.46875 7.4375 -14.46875 C 8.425781 -14.46875 9.320312 -14.296875 10.125 -13.953125 C 10.925781 -13.617188 11.617188 -13.128906 12.203125 -12.484375 C 12.785156 -11.847656 13.234375 -11.078125 13.546875 -10.171875 C 13.859375 -9.265625 14.015625 -8.242188 14.015625 -7.109375 C 14.015625 -5.984375 13.859375 -4.960938 13.546875 -4.046875 C 13.234375 -3.140625 12.785156 -2.367188 12.203125 -1.734375 C 11.617188 -1.097656 10.925781 -0.609375 10.125 -0.265625 C 9.320312 0.0742188 8.425781 0.25 7.4375 0.25 Z M 7.4375 -1.84375 C 8.28125 -1.84375 9.007812 -2.046875 9.625 -2.453125 C 10.25 -2.867188 10.734375 -3.46875 11.078125 -4.25 C 11.421875 -5.039062 11.59375 -5.992188 11.59375 -7.109375 C 11.59375 -8.234375 11.421875 -9.1875 11.078125 -9.96875 C 10.734375 -10.75 10.25 -11.34375 9.625 -11.75 C 9.007812 -12.164062 8.28125 -12.375 7.4375 -12.375 C 6.601562 -12.375 5.875 -12.164062 5.25 -11.75 C 4.625 -11.34375 4.132812 -10.75 3.78125 -9.96875 C 3.4375 -9.1875 3.265625 -8.234375 3.265625 -7.109375 C 3.265625 -5.992188 3.4375 -5.039062 3.78125 -4.25 C 4.132812 -3.46875 4.625 -2.867188 5.25 -2.453125 C 5.875 -2.046875 6.601562 -1.84375 7.4375 -1.84375 Z M 7.4375 -1.84375 "/></g></g></g><g fill="#ffffff" fill-opacity="1"><g transform="translate(118.29308, 107.049975)"><g><path d="M 6.9375 0.25 C 6.03125 0.25 5.203125 0.0742188 4.453125 -0.265625 C 3.710938 -0.617188 3.070312 -1.117188 2.53125 -1.765625 C 1.988281 -2.410156 1.570312 -3.179688 1.28125 -4.078125 C 0.988281 -4.984375 0.84375 -5.992188 0.84375 -7.109375 C 0.84375 -8.222656 0.988281 -9.226562 1.28125 -10.125 C 1.570312 -11.03125 1.984375 -11.804688 2.515625 -12.453125 C 3.054688 -13.097656 3.691406 -13.59375 4.421875 -13.9375 C 5.160156 -14.289062 5.976562 -14.46875 6.875 -14.46875 C 7.894531 -14.46875 8.800781 -14.234375 9.59375 -13.765625 C 10.382812 -13.304688 10.988281 -12.6875 11.40625 -11.90625 L 11.453125 -11.90625 L 11.453125 -19.734375 L 13.84375 -19.734375 L 13.84375 0 L 11.5625 0 L 11.5625 -2.40625 L 11.53125 -2.40625 C 11.070312 -1.582031 10.445312 -0.929688 9.65625 -0.453125 C 8.875 0.0117188 7.96875 0.25 6.9375 0.25 Z M 7.390625 -12.375 C 6.546875 -12.375 5.816406 -12.15625 5.203125 -11.71875 C 4.585938 -11.289062 4.113281 -10.679688 3.78125 -9.890625 C 3.445312 -9.109375 3.28125 -8.179688 3.28125 -7.109375 C 3.28125 -6.035156 3.445312 -5.101562 3.78125 -4.3125 C 4.113281 -3.519531 4.585938 -2.910156 5.203125 -2.484375 C 5.816406 -2.054688 6.546875 -1.84375 7.390625 -1.84375 C 8.203125 -1.84375 8.914062 -2.054688 9.53125 -2.484375 C 10.144531 -2.921875 10.617188 -3.535156 10.953125 -4.328125 C 11.296875 -5.128906 11.46875 -6.054688 11.46875 -7.109375 C 11.46875 -8.171875 11.296875 -9.09375 10.953125 -9.875 C 10.617188 -10.664062 10.144531 -11.28125 9.53125 -11.71875 C 8.914062 -12.15625 8.203125 -12.375 7.390625 -12.375 Z M 7.390625 -12.375 "/></g></g></g><g fill="#ffffff" fill-opacity="1"><g transform="translate(133.234829, 107.049975)"><g><path d="M 13.21875 -14.21875 L 13.21875 0 L 10.96875 0 L 10.96875 -2.3125 L 10.90625 -2.3125 C 10.488281 -1.488281 9.90625 -0.851562 9.15625 -0.40625 C 8.414062 0.0273438 7.5 0.25 6.40625 0.25 C 5.375 0.25 4.488281 0.0351562 3.75 -0.390625 C 3.007812 -0.816406 2.445312 -1.421875 2.0625 -2.203125 C 1.675781 -2.984375 1.484375 -3.910156 1.484375 -4.984375 L 1.484375 -14.21875 L 3.859375 -14.21875 L 3.859375 -5.421875 C 3.859375 -4.253906 4.128906 -3.367188 4.671875 -2.765625 C 5.210938 -2.160156 6.035156 -1.859375 7.140625 -1.859375 C 7.910156 -1.859375 8.570312 -2.023438 9.125 -2.359375 C 9.675781 -2.691406 10.097656 -3.15625 10.390625 -3.75 C 10.691406 -4.351562 10.84375 -5.054688 10.84375 -5.859375 L 10.84375 -14.21875 Z M 13.21875 -14.21875 "/></g></g></g><g fill="#ffffff" fill-opacity="1"><g transform="translate(147.424735, 107.049975)"><g><path d="M 13.359375 -9.5625 L 11.03125 -9.5625 C 10.925781 -10.082031 10.71875 -10.550781 10.40625 -10.96875 C 10.09375 -11.394531 9.6875 -11.734375 9.1875 -11.984375 C 8.695312 -12.242188 8.097656 -12.375 7.390625 -12.375 C 6.578125 -12.375 5.859375 -12.160156 5.234375 -11.734375 C 4.617188 -11.304688 4.132812 -10.695312 3.78125 -9.90625 C 3.4375 -9.113281 3.265625 -8.179688 3.265625 -7.109375 C 3.265625 -6.003906 3.441406 -5.0625 3.796875 -4.28125 C 4.148438 -3.5 4.632812 -2.894531 5.25 -2.46875 C 5.875 -2.050781 6.597656 -1.84375 7.421875 -1.84375 C 8.398438 -1.84375 9.195312 -2.082031 9.8125 -2.5625 C 10.4375 -3.050781 10.847656 -3.722656 11.046875 -4.578125 L 13.390625 -4.578125 C 13.265625 -3.640625 12.929688 -2.804688 12.390625 -2.078125 C 11.859375 -1.347656 11.164062 -0.773438 10.3125 -0.359375 C 9.457031 0.0429688 8.488281 0.25 7.40625 0.25 C 6.09375 0.25 4.941406 -0.0390625 3.953125 -0.625 C 2.972656 -1.21875 2.207031 -2.066406 1.65625 -3.171875 C 1.113281 -4.273438 0.84375 -5.585938 0.84375 -7.109375 C 0.84375 -8.234375 1 -9.242188 1.3125 -10.140625 C 1.625 -11.046875 2.066406 -11.820312 2.640625 -12.46875 C 3.222656 -13.113281 3.910156 -13.609375 4.703125 -13.953125 C 5.503906 -14.296875 6.398438 -14.46875 7.390625 -14.46875 C 8.273438 -14.46875 9.066406 -14.332031 9.765625 -14.0625 C 10.472656 -13.789062 11.078125 -13.425781 11.578125 -12.96875 C 12.085938 -12.507812 12.492188 -11.984375 12.796875 -11.390625 C 13.097656 -10.804688 13.285156 -10.195312 13.359375 -9.5625 Z M 13.359375 -9.5625 "/></g></g></g><g fill="#ffffff" fill-opacity="1"><g transform="translate(160.890127, 107.049975)"><g><path d="M 2.3125 -17.65625 L 4.6875 -17.65625 L 4.6875 -14.21875 L 7.453125 -14.21875 L 7.453125 -12.265625 L 4.6875 -12.265625 L 4.6875 -3.8125 C 4.6875 -3.164062 4.828125 -2.6875 5.109375 -2.375 C 5.390625 -2.070312 5.835938 -1.921875 6.453125 -1.921875 C 6.585938 -1.921875 6.765625 -1.929688 6.984375 -1.953125 C 7.203125 -1.972656 7.351562 -1.988281 7.4375 -2 L 7.4375 0 C 7.289062 0.0390625 7.070312 0.0664062 6.78125 0.078125 C 6.5 0.0976562 6.21875 0.109375 5.9375 0.109375 C 5.070312 0.109375 4.367188 -0.015625 3.828125 -0.265625 C 3.296875 -0.523438 2.910156 -0.929688 2.671875 -1.484375 C 2.429688 -2.046875 2.3125 -2.78125 2.3125 -3.6875 L 2.3125 -12.265625 L 0.1875 -12.265625 L 0.1875 -14.21875 L 2.3125 -14.21875 Z M 2.3125 -17.65625 "/></g></g></g><g fill="#ffffff" fill-opacity="1"><g transform="translate(168.764509, 107.049975)"><g/></g></g><g fill="#ffffff" fill-opacity="1"><g transform="translate(173.945901, 107.049975)"><g><path d="M 8.453125 -14.46875 C 9.347656 -14.46875 10.171875 -14.289062 10.921875 -13.9375 C 11.671875 -13.59375 12.3125 -13.097656 12.84375 -12.453125 C 13.382812 -11.804688 13.800781 -11.03125 14.09375 -10.125 C 14.382812 -9.226562 14.53125 -8.222656 14.53125 -7.109375 C 14.53125 -5.992188 14.382812 -4.984375 14.09375 -4.078125 C 13.800781 -3.179688 13.390625 -2.410156 12.859375 -1.765625 C 12.328125 -1.117188 11.691406 -0.617188 10.953125 -0.265625 C 10.210938 0.0742188 9.394531 0.25 8.5 0.25 C 7.476562 0.25 6.578125 0.0117188 5.796875 -0.453125 C 5.015625 -0.921875 4.410156 -1.539062 3.984375 -2.3125 L 3.921875 -2.3125 L 3.921875 4.75 L 1.546875 4.75 L 1.546875 -14.21875 L 3.796875 -14.21875 L 3.796875 -11.8125 L 3.859375 -11.8125 C 4.296875 -12.613281 4.910156 -13.253906 5.703125 -13.734375 C 6.503906 -14.222656 7.421875 -14.46875 8.453125 -14.46875 Z M 7.984375 -1.84375 C 8.828125 -1.84375 9.554688 -2.054688 10.171875 -2.484375 C 10.796875 -2.910156 11.269531 -3.519531 11.59375 -4.3125 C 11.925781 -5.101562 12.09375 -6.035156 12.09375 -7.109375 C 12.09375 -8.179688 11.925781 -9.109375 11.59375 -9.890625 C 11.269531 -10.679688 10.796875 -11.289062 10.171875 -11.71875 C 9.554688 -12.15625 8.828125 -12.375 7.984375 -12.375 C 7.171875 -12.375 6.457031 -12.15625 5.84375 -11.71875 C 5.238281 -11.28125 4.765625 -10.664062 4.421875 -9.875 C 4.078125 -9.09375 3.90625 -8.171875 3.90625 -7.109375 C 3.90625 -6.054688 4.078125 -5.132812 4.421875 -4.34375 C 4.765625 -3.550781 5.238281 -2.9375 5.84375 -2.5 C 6.457031 -2.0625 7.171875 -1.84375 7.984375 -1.84375 Z M 7.984375 -1.84375 "/></g></g></g><g fill="#ffffff" fill-opacity="1"><g transform="translate(188.764626, 107.049975)"><g><path d="M 1.671875 0 L 1.671875 -19.734375 L 4.046875 -19.734375 L 4.046875 -11.953125 L 4.109375 -11.953125 C 4.503906 -12.742188 5.082031 -13.359375 5.84375 -13.796875 C 6.613281 -14.242188 7.535156 -14.46875 8.609375 -14.46875 C 9.648438 -14.46875 10.546875 -14.25 11.296875 -13.8125 C 12.046875 -13.375 12.617188 -12.757812 13.015625 -11.96875 C 13.421875 -11.175781 13.625 -10.25 13.625 -9.1875 L 13.625 0 L 11.234375 0 L 11.234375 -8.75 C 11.234375 -9.882812 10.953125 -10.769531 10.390625 -11.40625 C 9.828125 -12.039062 8.988281 -12.359375 7.875 -12.359375 C 7.09375 -12.359375 6.414062 -12.1875 5.84375 -11.84375 C 5.269531 -11.507812 4.828125 -11.035156 4.515625 -10.421875 C 4.203125 -9.816406 4.046875 -9.101562 4.046875 -8.28125 L 4.046875 0 Z M 1.671875 0 "/></g></g></g><g fill="#ffffff" fill-opacity="1"><g transform="translate(203.296276, 107.049975)"><g><path d="M 1.671875 0 L 1.671875 -14.21875 L 4.046875 -14.21875 L 4.046875 0 Z M 2.859375 -16.609375 C 2.597656 -16.609375 2.351562 -16.675781 2.125 -16.8125 C 1.894531 -16.945312 1.710938 -17.125 1.578125 -17.34375 C 1.441406 -17.570312 1.375 -17.820312 1.375 -18.09375 C 1.375 -18.5 1.519531 -18.84375 1.8125 -19.125 C 2.101562 -19.414062 2.453125 -19.5625 2.859375 -19.5625 C 3.265625 -19.5625 3.613281 -19.414062 3.90625 -19.125 C 4.195312 -18.84375 4.34375 -18.5 4.34375 -18.09375 C 4.34375 -17.820312 4.273438 -17.570312 4.140625 -17.34375 C 4.015625 -17.125 3.835938 -16.945312 3.609375 -16.8125 C 3.378906 -16.675781 3.128906 -16.609375 2.859375 -16.609375 Z M 2.859375 -16.609375 "/></g></g></g><g fill="#ffffff" fill-opacity="1"><g transform="translate(208.450328, 107.049975)"><g><path d="M 1.671875 0 L 1.671875 -19.734375 L 4.046875 -19.734375 L 4.046875 0 Z M 1.671875 0 "/></g></g></g><g fill="#ffffff" fill-opacity="1"><g transform="translate(213.604381, 107.049975)"><g><path d="M 7.4375 0.25 C 6.457031 0.25 5.5625 0.0742188 4.75 -0.265625 C 3.945312 -0.609375 3.253906 -1.097656 2.671875 -1.734375 C 2.085938 -2.367188 1.632812 -3.140625 1.3125 -4.046875 C 1 -4.960938 0.84375 -5.984375 0.84375 -7.109375 C 0.84375 -8.242188 1 -9.265625 1.3125 -10.171875 C 1.632812 -11.078125 2.085938 -11.847656 2.671875 -12.484375 C 3.253906 -13.128906 3.945312 -13.617188 4.75 -13.953125 C 5.5625 -14.296875 6.457031 -14.46875 7.4375 -14.46875 C 8.425781 -14.46875 9.320312 -14.296875 10.125 -13.953125 C 10.925781 -13.617188 11.617188 -13.128906 12.203125 -12.484375 C 12.785156 -11.847656 13.234375 -11.078125 13.546875 -10.171875 C 13.859375 -9.265625 14.015625 -8.242188 14.015625 -7.109375 C 14.015625 -5.984375 13.859375 -4.960938 13.546875 -4.046875 C 13.234375 -3.140625 12.785156 -2.367188 12.203125 -1.734375 C 11.617188 -1.097656 10.925781 -0.609375 10.125 -0.265625 C 9.320312 0.0742188 8.425781 0.25 7.4375 0.25 Z M 7.4375 -1.84375 C 8.28125 -1.84375 9.007812 -2.046875 9.625 -2.453125 C 10.25 -2.867188 10.734375 -3.46875 11.078125 -4.25 C 11.421875 -5.039062 11.59375 -5.992188 11.59375 -7.109375 C 11.59375 -8.234375 11.421875 -9.1875 11.078125 -9.96875 C 10.734375 -10.75 10.25 -11.34375 9.625 -11.75 C 9.007812 -12.164062 8.28125 -12.375 7.4375 -12.375 C 6.601562 -12.375 5.875 -12.164062 5.25 -11.75 C 4.625 -11.34375 4.132812 -10.75 3.78125 -9.96875 C 3.4375 -9.1875 3.265625 -8.234375 3.265625 -7.109375 C 3.265625 -5.992188 3.4375 -5.039062 3.78125 -4.25 C 4.132812 -3.46875 4.625 -2.867188 5.25 -2.453125 C 5.875 -2.046875 6.601562 -1.84375 7.4375 -1.84375 Z M 7.4375 -1.84375 "/></g></g></g><g fill="#ffffff" fill-opacity="1"><g transform="translate(227.903647, 107.049975)"><g><path d="M 1.296875 -10.296875 C 1.296875 -11.109375 1.519531 -11.828125 1.96875 -12.453125 C 2.425781 -13.085938 3.050781 -13.582031 3.84375 -13.9375 C 4.644531 -14.289062 5.566406 -14.46875 6.609375 -14.46875 C 7.585938 -14.46875 8.460938 -14.285156 9.234375 -13.921875 C 10.003906 -13.566406 10.617188 -13.078125 11.078125 -12.453125 C 11.535156 -11.828125 11.78125 -11.113281 11.8125 -10.3125 L 9.546875 -10.3125 C 9.460938 -10.988281 9.15625 -11.523438 8.625 -11.921875 C 8.09375 -12.328125 7.390625 -12.53125 6.515625 -12.53125 C 5.648438 -12.53125 4.953125 -12.332031 4.421875 -11.9375 C 3.898438 -11.539062 3.640625 -11.035156 3.640625 -10.421875 C 3.640625 -9.929688 3.832031 -9.519531 4.21875 -9.1875 C 4.601562 -8.851562 5.195312 -8.582031 6 -8.375 L 8.203125 -7.828125 C 9.160156 -7.597656 9.921875 -7.316406 10.484375 -6.984375 C 11.054688 -6.648438 11.46875 -6.238281 11.71875 -5.75 C 11.976562 -5.269531 12.109375 -4.679688 12.109375 -3.984375 C 12.109375 -3.160156 11.867188 -2.425781 11.390625 -1.78125 C 10.910156 -1.144531 10.242188 -0.644531 9.390625 -0.28125 C 8.546875 0.0703125 7.566406 0.25 6.453125 0.25 C 5.410156 0.25 4.488281 0.0703125 3.6875 -0.28125 C 2.882812 -0.632812 2.242188 -1.125 1.765625 -1.75 C 1.285156 -2.382812 1.003906 -3.125 0.921875 -3.96875 L 3.296875 -3.96875 C 3.421875 -3.226562 3.757812 -2.664062 4.3125 -2.28125 C 4.875 -1.894531 5.640625 -1.703125 6.609375 -1.703125 C 7.566406 -1.703125 8.320312 -1.890625 8.875 -2.265625 C 9.4375 -2.648438 9.71875 -3.160156 9.71875 -3.796875 C 9.71875 -4.304688 9.550781 -4.710938 9.21875 -5.015625 C 8.894531 -5.316406 8.332031 -5.570312 7.53125 -5.78125 L 5.03125 -6.421875 C 2.539062 -7.066406 1.296875 -8.359375 1.296875 -10.296875 Z M 1.296875 -10.296875 "/></g></g></g><g fill="#ffffff" fill-opacity="1"><g transform="translate(240.371137, 107.049975)"><g><path d="M 7.4375 0.25 C 6.457031 0.25 5.5625 0.0742188 4.75 -0.265625 C 3.945312 -0.609375 3.253906 -1.097656 2.671875 -1.734375 C 2.085938 -2.367188 1.632812 -3.140625 1.3125 -4.046875 C 1 -4.960938 0.84375 -5.984375 0.84375 -7.109375 C 0.84375 -8.242188 1 -9.265625 1.3125 -10.171875 C 1.632812 -11.078125 2.085938 -11.847656 2.671875 -12.484375 C 3.253906 -13.128906 3.945312 -13.617188 4.75 -13.953125 C 5.5625 -14.296875 6.457031 -14.46875 7.4375 -14.46875 C 8.425781 -14.46875 9.320312 -14.296875 10.125 -13.953125 C 10.925781 -13.617188 11.617188 -13.128906 12.203125 -12.484375 C 12.785156 -11.847656 13.234375 -11.078125 13.546875 -10.171875 C 13.859375 -9.265625 14.015625 -8.242188 14.015625 -7.109375 C 14.015625 -5.984375 13.859375 -4.960938 13.546875 -4.046875 C 13.234375 -3.140625 12.785156 -2.367188 12.203125 -1.734375 C 11.617188 -1.097656 10.925781 -0.609375 10.125 -0.265625 C 9.320312 0.0742188 8.425781 0.25 7.4375 0.25 Z M 7.4375 -1.84375 C 8.28125 -1.84375 9.007812 -2.046875 9.625 -2.453125 C 10.25 -2.867188 10.734375 -3.46875 11.078125 -4.25 C 11.421875 -5.039062 11.59375 -5.992188 11.59375 -7.109375 C 11.59375 -8.234375 11.421875 -9.1875 11.078125 -9.96875 C 10.734375 -10.75 10.25 -11.34375 9.625 -11.75 C 9.007812 -12.164062 8.28125 -12.375 7.4375 -12.375 C 6.601562 -12.375 5.875 -12.164062 5.25 -11.75 C 4.625 -11.34375 4.132812 -10.75 3.78125 -9.96875 C 3.4375 -9.1875 3.265625 -8.234375 3.265625 -7.109375 C 3.265625 -5.992188 3.4375 -5.039062 3.78125 -4.25 C 4.132812 -3.46875 4.625 -2.867188 5.25 -2.453125 C 5.875 -2.046875 6.601562 -1.84375 7.4375 -1.84375 Z M 7.4375 -1.84375 "/></g></g></g><g fill="#ffffff" fill-opacity="1"><g transform="translate(254.670403, 107.049975)"><g><path d="M 8.453125 -14.46875 C 9.347656 -14.46875 10.171875 -14.289062 10.921875 -13.9375 C 11.671875 -13.59375 12.3125 -13.097656 12.84375 -12.453125 C 13.382812 -11.804688 13.800781 -11.03125 14.09375 -10.125 C 14.382812 -9.226562 14.53125 -8.222656 14.53125 -7.109375 C 14.53125 -5.992188 14.382812 -4.984375 14.09375 -4.078125 C 13.800781 -3.179688 13.390625 -2.410156 12.859375 -1.765625 C 12.328125 -1.117188 11.691406 -0.617188 10.953125 -0.265625 C 10.210938 0.0742188 9.394531 0.25 8.5 0.25 C 7.476562 0.25 6.578125 0.0117188 5.796875 -0.453125 C 5.015625 -0.921875 4.410156 -1.539062 3.984375 -2.3125 L 3.921875 -2.3125 L 3.921875 4.75 L 1.546875 4.75 L 1.546875 -14.21875 L 3.796875 -14.21875 L 3.796875 -11.8125 L 3.859375 -11.8125 C 4.296875 -12.613281 4.910156 -13.253906 5.703125 -13.734375 C 6.503906 -14.222656 7.421875 -14.46875 8.453125 -14.46875 Z M 7.984375 -1.84375 C 8.828125 -1.84375 9.554688 -2.054688 10.171875 -2.484375 C 10.796875 -2.910156 11.269531 -3.519531 11.59375 -4.3125 C 11.925781 -5.101562 12.09375 -6.035156 12.09375 -7.109375 C 12.09375 -8.179688 11.925781 -9.109375 11.59375 -9.890625 C 11.269531 -10.679688 10.796875 -11.289062 10.171875 -11.71875 C 9.554688 -12.15625 8.828125 -12.375 7.984375 -12.375 C 7.171875 -12.375 6.457031 -12.15625 5.84375 -11.71875 C 5.238281 -11.28125 4.765625 -10.664062 4.421875 -9.875 C 4.078125 -9.09375 3.90625 -8.171875 3.90625 -7.109375 C 3.90625 -6.054688 4.078125 -5.132812 4.421875 -4.34375 C 4.765625 -3.550781 5.238281 -2.9375 5.84375 -2.5 C 6.457031 -2.0625 7.171875 -1.84375 7.984375 -1.84375 Z M 7.984375 -1.84375 "/></g></g></g><g fill="#ffffff" fill-opacity="1"><g transform="translate(269.489128, 107.049975)"><g><path d="M 1.671875 0 L 1.671875 -19.734375 L 4.046875 -19.734375 L 4.046875 -11.953125 L 4.109375 -11.953125 C 4.503906 -12.742188 5.082031 -13.359375 5.84375 -13.796875 C 6.613281 -14.242188 7.535156 -14.46875 8.609375 -14.46875 C 9.648438 -14.46875 10.546875 -14.25 11.296875 -13.8125 C 12.046875 -13.375 12.617188 -12.757812 13.015625 -11.96875 C 13.421875 -11.175781 13.625 -10.25 13.625 -9.1875 L 13.625 0 L 11.234375 0 L 11.234375 -8.75 C 11.234375 -9.882812 10.953125 -10.769531 10.390625 -11.40625 C 9.828125 -12.039062 8.988281 -12.359375 7.875 -12.359375 C 7.09375 -12.359375 6.414062 -12.1875 5.84375 -11.84375 C 5.269531 -11.507812 4.828125 -11.035156 4.515625 -10.421875 C 4.203125 -9.816406 4.046875 -9.101562 4.046875 -8.28125 L 4.046875 0 Z M 1.671875 0 "/></g></g></g><g fill="#ffffff" fill-opacity="1"><g transform="translate(284.020789, 107.049975)"><g><path d="M 2.71875 5.3125 C 2.570312 5.3125 2.394531 5.304688 2.1875 5.296875 C 1.988281 5.285156 1.828125 5.265625 1.703125 5.234375 L 1.703125 3.234375 C 1.828125 3.265625 1.972656 3.285156 2.140625 3.296875 C 2.316406 3.304688 2.476562 3.3125 2.625 3.3125 C 3.289062 3.3125 3.820312 3.132812 4.21875 2.78125 C 4.625 2.425781 4.960938 1.835938 5.234375 1.015625 L 5.5625 0.015625 L 0.3125 -14.21875 L 2.859375 -14.21875 L 6.796875 -2.375 L 6.84375 -2.375 L 10.78125 -14.21875 L 13.28125 -14.21875 L 7.6875 1 C 7.382812 1.832031 7.070312 2.523438 6.75 3.078125 C 6.4375 3.628906 6.085938 4.066406 5.703125 4.390625 C 5.328125 4.722656 4.894531 4.957031 4.40625 5.09375 C 3.925781 5.238281 3.363281 5.3125 2.71875 5.3125 Z M 2.71875 5.3125 "/></g></g></g></svg>